<svg width="80" height="80" viewBox="0 0 80 80" fill="none" xmlns="http://www.w3.org/2000/svg">
<mask id="mask0" mask-type="alpha" maskUnits="userSpaceOnUse" x="0" y="0" width="80" height="80">
<path d="M80 0H0V80H80V0Z" fill="white"/>
</mask>
<g mask="url(#mask0)">
<path d="M80 0H0V80H80V0Z" fill="white"/>
<path d="M0 40C0 62.0914 17.9086 80 40 80C62.0914 80 80 62.0914 80 40C80 17.9086 62.0914 0 40 0C17.9086 0 0 17.9086 0 40Z" fill="white"/>
<path d="M36.6195 46.8236C36.6565 46.8292 36.6644 46.8303 36.7015 46.8348C37.308 46.9168 37.9033 47.0269 38.3594 47.2302C38.7828 47.4166 39.0299 47.6536 39.2557 48.0737C39.5994 48.7117 39.6219 49.607 39.3119 50.2831C39.0794 50.7864 38.5694 51.2087 38.1044 51.4333C37.6214 51.6681 37.1451 51.7793 36.5993 51.8411C35.6434 51.9455 34.6122 51.7478 33.753 51.3323C33.2441 51.084 32.6241 50.6561 32.3107 50.1057C32.0805 49.7024 32.0872 49.1779 32.368 48.7937C32.8151 48.1827 33.7709 48.0479 34.4921 48.0737C35.0413 48.0951 36.0309 48.2647 36.5521 48.45C36.697 48.5028 37.2294 48.7095 37.3226 48.805C37.3878 48.8712 37.4304 48.9678 37.4012 49.0566C37.2822 49.4216 36.3959 49.6137 36.141 49.6519C35.4558 49.7563 35.1009 49.4969 34.3224 49.1902C34.1292 49.115 33.872 49.0307 33.6743 49.0128C33.3205 48.9791 32.8948 49.0779 32.8263 49.4643C32.7926 49.6631 33.0262 49.8496 33.2037 49.9271C33.6215 50.1068 33.9608 50.1708 34.3719 50.1764C35.5861 50.1967 36.9508 49.9967 37.9438 49.2924C38.0797 49.1958 38.2133 49.0532 38.2145 48.8746C38.219 48.5129 37.5855 48.2916 37.5855 48.2916C36.916 48.0131 35.6804 47.8772 35.0436 47.8244C34.3752 47.7671 33.3239 47.6795 33.0723 47.6424C32.8128 47.6053 32.5298 47.5526 32.3051 47.4515C32.0793 47.3492 31.8581 47.1212 31.7918 46.8685C31.675 46.4125 31.8244 45.8531 32.0771 45.4892C32.7409 44.5355 34.2944 44.1727 35.4558 44.029C36.5802 43.8885 38.3964 43.8908 39.5006 44.4771C39.6713 44.5681 39.7578 44.6535 39.7219 44.8354C39.65 45.178 39.3927 45.3982 39.0816 45.4948C38.7547 45.5981 38.0786 45.6397 37.7809 45.6576C36.4499 45.7329 34.8414 45.6936 33.5744 46.0395C33.4755 46.0676 33.3037 46.1137 33.2475 46.1766C33.0487 46.3922 33.6159 46.454 33.7372 46.4787C33.7732 46.4866 33.7799 46.4888 33.8181 46.4922L36.6195 46.8236ZM28.7029 40.8895C28.7029 40.8895 28.9197 40.5649 29.1005 40.3189C29.4307 39.8707 30.0283 39.2484 30.4787 38.8632C30.6169 38.7464 30.7786 38.6127 30.7786 38.6127C30.7786 38.6127 30.5248 38.6385 30.381 38.6677C30.0395 38.734 29.5386 39.0676 29.2881 39.2821C28.8759 39.636 28.4209 40.2099 28.6265 40.7199C28.6568 40.7918 28.7029 40.8895 28.7029 40.8895ZM30.9977 41.5028C31.6503 41.4579 32.2613 41.2703 32.8297 40.9546C33.3879 40.6424 34.2079 40.0347 34.1225 39.3181C34.0967 39.0867 33.945 38.9115 33.7541 38.8306C33.5047 38.7228 33.3756 38.7407 33.0577 38.834C32.8274 38.9025 32.723 38.9429 32.505 39.0676C31.8648 39.4394 30.9583 40.2347 30.4652 40.8693C30.3518 41.0187 30.2361 41.186 30.1462 41.3017C30.089 41.3725 30.0452 41.4376 30.0508 41.4545C30.0699 41.5275 30.7427 41.5208 30.9977 41.5028ZM29.3364 42.7226C29.269 42.7934 29.1982 42.9652 29.1241 43.0899C29.0848 43.1562 29.0118 43.2416 28.9635 43.2764C28.7939 43.4011 28.6501 43.4078 28.4861 43.2629C28.257 43.0596 28.1233 42.7451 28.1143 42.4396C28.1098 42.3059 28.1323 42.1588 28.1076 42.0464C28.066 41.8566 27.8762 41.6612 27.7728 41.4792C27.6527 41.2647 27.5549 40.8917 27.5437 40.6514C27.5021 39.901 27.8975 39.2091 28.412 38.6632C28.9298 38.1117 29.6071 37.6523 30.3439 37.3412C31.0403 37.048 32.0614 36.8481 32.8263 37.112C33.0757 37.1974 33.4216 37.4097 33.5968 37.631C33.6339 37.677 33.6642 37.7276 33.7024 37.7512C33.7361 37.7725 33.8249 37.7815 33.8956 37.7939C34.1394 37.8365 34.4909 38.0207 34.6347 38.1443C34.9234 38.3925 35.0806 38.6307 35.1536 38.9755C35.2997 39.6697 34.9009 40.4312 34.4449 40.894C33.6654 41.6915 32.8959 42.2531 31.8985 42.6429C31.4604 42.8136 30.7786 42.9731 30.281 42.9293C30.1272 42.9158 29.9676 42.8754 29.8183 42.8653C29.7419 42.8585 29.4611 42.7866 29.4319 42.7664C29.3937 42.7383 29.3454 42.7125 29.3364 42.7226ZM30.2271 44.2615C30.2574 44.2671 30.3046 44.2806 30.3451 44.2952C30.6944 44.4288 30.8382 44.7523 30.9247 45.1073C31.1246 45.9317 31.2088 47.7581 31.2425 48.4725C31.2672 49.0083 31.2796 49.5362 31.3021 50.0664C31.3212 50.5157 31.3571 51.1121 31.2639 51.5333C31.2302 51.6838 31.1291 51.8602 30.9842 51.95C30.8179 52.0556 30.4405 52.0646 30.2327 52.0208C29.7217 51.9152 29.5543 51.5861 29.4813 51.0795C29.3072 49.872 29.3914 47.5009 29.4936 46.5001C29.5273 46.1698 29.652 45.1118 29.825 44.6681C29.8834 44.5209 30.0092 44.2188 30.2271 44.2615ZM14.6557 46.2709C14.6557 46.2709 13.8941 46.3249 13.3695 46.3833C12.7023 46.4551 11.4488 46.6719 10.7254 46.9303C10.5087 47.0078 10.0684 47.192 10.029 47.4155C9.9886 47.6469 10.1324 47.8277 10.2919 48.0153C10.384 48.1243 10.9063 48.6264 11.0534 48.7488C11.6678 49.261 12.9124 50.0518 13.8301 50.4359C14.1446 50.5662 14.6658 50.7527 14.6658 50.7527C14.6658 50.7527 14.6276 49.2689 14.6343 47.8064C14.6399 47.0347 14.6557 46.2709 14.6557 46.2709ZM28.6243 46.8618C28.6681 47.2605 28.5658 48.0142 28.5479 48.113C28.5153 48.3422 28.3423 48.8712 28.3142 48.9353C28.175 49.2565 28.0368 49.5193 27.8919 49.7822C27.6414 50.2326 27.0484 50.9447 26.6957 51.2491C25.3848 52.3825 23.354 53.0283 21.613 53.2406C20.4314 53.3833 19.0734 53.3619 17.8209 53.1306C17.3896 53.0519 16.7494 52.9048 16.7494 52.9048C16.7494 52.9048 16.7516 53.1609 16.7303 53.3417C16.7202 53.4237 16.6584 53.6405 16.6236 53.7113C16.5326 53.8988 16.3832 53.9966 16.1653 54.0381C15.9036 54.0864 15.625 54.1033 15.3824 53.9999C14.9848 53.8326 14.8421 53.4597 14.7725 53.0306C14.7163 52.6869 14.6579 52.0893 14.6579 52.0893C14.6579 52.0893 14.3602 51.9478 14.112 51.8242C13.3493 51.4479 12.626 50.993 11.9913 50.5246C11.8161 50.3932 11.0613 49.762 10.8951 49.6047C10.4289 49.1622 10.0088 48.7207 9.6887 48.1546C9.44046 47.7132 9.36857 47.32 9.55728 46.8528C9.81787 46.2002 10.7535 45.7093 11.3938 45.4285C11.8644 45.2207 13.3257 44.7433 13.9323 44.6557C14.2187 44.6142 14.6635 44.5344 14.6916 44.5176C14.7028 44.5097 14.7107 44.5018 14.7186 44.4928C14.7332 44.4726 14.7556 43.8268 14.7511 43.5909C14.7455 43.3584 14.923 41.8319 14.9803 41.5095C15.0106 41.3354 15.142 40.6637 15.2779 40.4863C15.3655 40.3672 15.5217 40.3762 15.6497 40.4548C16.3461 40.8873 16.5573 42.389 16.609 43.1539C16.6404 43.6201 16.655 44.3199 16.655 44.3199C16.655 44.3199 17.4536 44.2963 17.9456 44.3098C18.423 44.321 18.9487 44.3962 19.4451 44.476C20.0798 44.5771 21.3165 44.8478 22.0264 45.2072C22.6104 45.5038 23.1575 46.0025 23.3338 46.5304C23.4989 47.0145 23.4742 47.3492 23.2226 47.7862C22.9407 48.2793 22.4071 48.6466 21.8669 48.6769C21.7062 48.6859 21.1008 48.6061 20.9143 48.4624C20.8413 48.404 20.8447 48.3006 20.8975 48.231C20.9177 48.2063 21.2008 48.0558 21.367 47.9681C21.4513 47.9221 21.5198 47.8738 21.5849 47.8143C21.7242 47.6918 21.8489 47.557 21.8354 47.3998C21.8163 47.1954 21.5995 47.0684 21.3928 46.9876C20.4246 46.6034 18.4904 46.2833 17.5559 46.2283C17.1897 46.2069 16.6696 46.1889 16.6696 46.1889L16.7797 51.3491C16.7797 51.3491 17.2099 51.4311 17.5491 51.4861C17.7434 51.5153 18.5679 51.5895 18.7869 51.5951C20.4538 51.6389 22.3161 51.4906 23.846 50.7673C24.5177 50.4505 25.1344 50.0574 25.6005 49.525C26.216 48.8196 26.5373 47.8547 26.453 46.8472C26.3598 45.7453 25.5848 44.4389 24.9659 43.6437C23.3316 41.541 20.5291 39.8123 18.0636 38.798C15.5464 37.7635 13.0595 37.1682 10.3885 37.0694C9.69993 37.0435 8.19816 37.0783 7.43997 37.2884C7.33214 37.3187 7.22206 37.3558 7.12097 37.3783C7.04122 37.3973 6.91654 37.4501 6.88172 37.4782C6.86263 37.4939 6.84353 37.5142 6.84353 37.5142C6.84353 37.5142 6.89071 37.54 6.93451 37.5591C7.01539 37.5939 7.35348 37.6153 7.52871 37.6478C7.68484 37.677 7.84883 37.7602 7.91285 37.8747C7.97463 37.9837 7.9825 38.0702 7.90836 38.1612C7.73651 38.3701 7.08952 38.3353 6.80422 38.2903C6.50768 38.2431 6.13926 38.1522 6.07187 37.8949C5.99324 37.5917 6.13701 37.294 6.29314 37.0177C6.60653 36.4673 7.0547 36.1809 7.7118 36.0012C8.64521 35.7439 9.82348 35.5653 10.7041 35.5316C12.699 35.4564 14.586 35.8046 16.518 36.392C17.6233 36.7257 19.0711 37.2873 20.1314 37.7983C20.8919 38.1656 22.0904 38.8396 22.7632 39.2799C22.9755 39.4203 24.2178 40.3324 24.411 40.493C24.8142 40.8221 25.3399 41.295 25.7207 41.6735C26.4587 42.4047 27.3763 43.5246 27.8223 44.4153C27.929 44.6288 28.0121 44.8377 28.1514 45.0848C28.1985 45.169 28.403 45.6756 28.4367 45.8216C28.4704 45.9665 28.5198 46.1788 28.5265 46.1867C28.5378 46.2597 28.631 46.6944 28.6243 46.8618ZM53.6927 45.7205C52.7593 45.9362 50.3028 46.0553 50.3028 46.0553L49.9928 47.0258C49.9928 47.0258 51.2205 46.9202 52.1123 47.0134C52.1123 47.0134 52.4021 46.9797 52.4358 47.3414C52.447 47.6795 52.4077 48.0412 52.4077 48.0412C52.4077 48.0412 52.3886 48.2602 52.0786 48.3164C51.7428 48.3725 49.4334 48.4613 49.4334 48.4613L49.0593 49.726C49.0593 49.726 48.9201 50.0181 49.2312 49.9349C49.521 49.8574 51.9393 49.4036 52.2538 49.4688C52.5919 49.553 52.9648 50.0023 52.857 50.4134C52.7278 50.9223 50.314 52.4611 48.8437 52.3544C48.8437 52.3544 48.0709 52.4038 47.4183 51.3615C46.8106 50.3674 47.6486 48.4871 47.6486 48.4871C47.6486 48.4871 47.2644 47.6087 47.543 47.3111C47.543 47.3111 47.7081 47.1605 48.1922 47.1268L48.7841 45.9025C48.7841 45.9025 48.1102 45.9486 47.7092 45.4532C47.3363 44.9826 47.3048 44.7669 47.5913 44.6366C47.8979 44.485 50.7038 43.9728 52.6357 44.0379C52.6357 44.0379 53.3063 43.9728 53.8893 45.1365C53.8904 45.1365 54.1723 45.6082 53.6927 45.7205ZM46.4287 50.428C46.1816 51.0099 45.5279 51.6322 44.7147 51.2458C43.9127 50.8582 42.6355 48.2445 42.6355 48.2445C42.6355 48.2445 42.1503 47.2695 42.0571 47.2953C42.0571 47.2953 41.9526 47.1055 41.8886 48.1703C41.8223 49.2307 41.9009 51.2997 41.4786 51.6243C41.0776 51.9512 40.5924 51.8209 40.3408 51.4401C40.1116 51.0638 40.0173 50.1719 40.1419 48.6039C40.2891 47.0325 40.653 45.3611 41.1192 44.8411C41.5853 44.3244 41.9582 44.6995 42.1042 44.8354C42.1042 44.8354 42.7265 45.4004 43.7543 47.0572L43.9351 47.3638C43.9351 47.3638 44.8685 48.9296 44.9663 48.9263C44.9663 48.9263 45.0426 48.9982 45.11 48.9465C45.2078 48.9184 45.1684 48.4163 45.1684 48.4163C45.1684 48.4163 44.9752 46.7101 44.1238 43.8212C44.1238 43.8212 43.9947 43.4617 44.0823 43.1236C44.1688 42.7822 44.5113 42.9428 44.5113 42.9428C44.5113 42.9428 45.8312 43.6066 46.4714 45.7554C47.1072 47.9019 46.6803 49.8417 46.4287 50.428ZM60.6321 49.1408C60.0311 50.1888 58.335 52.3836 56.0818 51.8658C55.3371 53.6708 54.7126 55.4972 54.3554 58.2289C54.3554 58.2289 54.2768 58.7602 53.8354 58.576C53.3984 58.4221 52.6773 57.6954 52.5324 56.6901C52.3763 55.3692 52.9637 53.135 54.1656 50.5752C53.8151 50.0057 53.5759 49.1914 53.7803 48.0311C53.7803 48.0311 54.0825 45.8778 56.2447 43.9368C56.2447 43.9368 56.5042 43.7122 56.6536 43.7818C56.8187 43.8515 56.7423 44.5513 56.6109 44.8927C56.475 45.2319 55.5112 46.8988 55.5112 46.8988C55.5112 46.8988 54.9103 48.0243 55.0799 48.9128C56.2144 47.1695 58.7922 43.6527 60.3906 44.7613C60.9275 45.1455 61.1746 45.9811 61.1746 46.8809C61.1746 47.6705 60.9848 48.5118 60.6321 49.1408ZM60.1659 46.3799C60.1659 46.3799 60.0772 45.6869 59.3988 46.4495C58.8158 47.0943 57.7644 48.3018 56.9186 49.9417C57.806 49.8417 58.663 49.3598 58.9225 49.115C59.3426 48.7409 60.3232 47.7278 60.1659 46.3799ZM73.0472 46.2215H68.9171C68.8351 44.8175 68.6655 43.4505 68.3981 42.0419C68.3712 41.8959 68.2443 41.7903 68.096 41.7903H67.1446C67.0615 41.7903 66.9829 41.8274 66.929 41.8926C66.875 41.9588 66.8537 42.0431 66.8694 42.1251C67.1401 43.4875 67.3109 44.8287 67.3951 46.2226H63.4211C63.2357 46.2226 63.0852 46.372 63.0852 46.5574V47.4155C63.0852 47.6009 63.2357 47.7514 63.4211 47.7514H67.4513C67.4535 47.9637 67.4557 48.1535 67.4557 48.331C67.4557 49.5688 67.403 50.5875 67.2772 51.7389C67.267 51.8276 67.2962 51.9163 67.3569 51.9815C67.4153 52.0466 67.4996 52.0848 67.5872 52.0848H68.47C68.6419 52.0848 68.7845 51.9556 68.8025 51.7838C68.9227 50.6246 68.9744 49.5924 68.9744 48.331C68.9744 48.1535 68.9721 47.9625 68.9699 47.7514H73.0439C73.2281 47.7514 73.3798 47.6009 73.3798 47.4155V46.5574C73.3831 46.372 73.2326 46.2215 73.0472 46.2215Z" fill="#01147B"/>
<path d="M67.8399 39.7719C65.736 34.5938 62.1776 30.1794 57.5499 27.0085C52.8132 23.7612 47.2588 22.0461 41.4898 22.0472C31.9513 22.0483 23.1013 26.7872 17.8164 34.7263C17.758 34.8128 17.7434 34.9195 17.7771 35.0195C17.8119 35.1194 17.8883 35.1958 17.9872 35.2295L18.7274 35.4789C18.7723 35.4935 18.8172 35.5002 18.8599 35.5002C18.9969 35.5002 19.1261 35.4317 19.2025 35.3182C21.6264 31.7565 24.9074 28.7911 28.6905 26.7412C32.596 24.6261 37.0227 23.5074 41.4898 23.5063C46.887 23.5063 52.0943 25.0968 56.5491 28.1082C60.896 31.0454 64.2725 35.143 66.3123 39.9595C66.3729 40.1032 66.5133 40.1965 66.6694 40.1965H67.5534C67.6557 40.1965 67.7511 40.1448 67.8084 40.0594C67.8668 39.9752 67.8781 39.8674 67.8399 39.7719Z" fill="url(#paint0_radial)"/>
</g>
<defs>
<radialGradient id="paint0_radial" cx="0" cy="0" r="1" gradientUnits="userSpaceOnUse" gradientTransform="translate(68 40) rotate(-180) scale(50)">
<stop stop-color="#01147B"/>
<stop offset="0.0001" stop-color="#01147B"/>
<stop offset="0.0255" stop-color="#011098"/>
<stop offset="0.0643" stop-color="#010ABD"/>
<stop offset="0.1032" stop-color="#0006DA"/>
<stop offset="0.1416" stop-color="#0003EE"/>
<stop offset="0.1794" stop-color="#0001FB"/>
<stop offset="0.2159" stop-color="#0000FF"/>
<stop offset="1" stop-color="#00FFFF" stop-opacity="0"/>
</radialGradient>
</defs>
</svg>
