<svg xmlns="http://www.w3.org/2000/svg" width="32" height="32" viewBox="0 0 32 32">
    <g fill="none" fill-rule="evenodd">
        <g fill="#000">
            <g transform="translate(-1497 -232) translate(1497 232)">
                <circle cx="16" cy="16" r="16" fill-opacity=".04"/>
                <path fill-opacity=".8" fill-rule="nonzero" d="M14 8c1.657 0 3 1.343 3 3s-1.343 3-3 3-3-1.343-3-3 1.343-3 3-3zm0 1c-1.104.001-1.999.896-2 2 0 1.105.895 2 2 2s2-.895 2-2-.895-2-2-2zM20 13c1.105 0 2 .895 2 2s-.895 2-2 2-2-.895-2-2 .895-2 2-2zm0 1c-.552 0-1 .448-1 1s.448 1 1 1 1-.448 1-1-.448-1-1-1z"/>
                <path fill-opacity=".8" fill-rule="nonzero" d="M17 15v1h-6c-1.104.001-1.999.896-2 2v3c0 .552.448 1 1 1h6.277c-.18-.303-.275-.648-.277-1v-1c0-1.105.895-2 2-2h4c1.105 0 2 .895 2 2v1c0 1.105-.895 2-2 2H10c-1.105 0-2-.895-2-2v-3c0-1.657 1.343-3 3-3h6zm5 4h-4c-.552 0-1 .448-1 1v1c0 .552.448 1 1 1h4c.552 0 1-.448 1-1v-1c0-.552-.448-1-1-1z"/>
            </g>
        </g>
    </g>
</svg>
