<svg width="79" height="67" viewBox="0 0 79 67" fill="none" xmlns="http://www.w3.org/2000/svg">
<g clip-path="url(#clip0_123_117)">
<path fill-rule="evenodd" clip-rule="evenodd" d="M3 66.2929C3 62.265 6.35791 59 10.5 59C14.6421 59 18 62.265 18 66.2929" fill="#5F25FD"/>
<path d="M15 49.6786V20.691" stroke="#484848" stroke-width="0.954167" stroke-linecap="round"/>
<path fill-rule="evenodd" clip-rule="evenodd" d="M28.6667 39.1667V33.8334H22.8334V39.1667H28.6667Z" fill="#5F25FD"/>
<path opacity="0.4" fill-rule="evenodd" clip-rule="evenodd" d="M23.6667 39.1667V30.8334H22.8334V39.1667H23.6667Z" fill="#B3B3B3"/>
<path d="M28.6667 34H22.8334" stroke="#484848" stroke-width="0.954167" stroke-linecap="round"/>
<path fill-rule="evenodd" clip-rule="evenodd" d="M28.6667 40V30H22V40H28.6667Z" stroke="#484848" stroke-width="0.954167" stroke-linecap="round"/>
<path opacity="0.4" fill-rule="evenodd" clip-rule="evenodd" d="M36.6667 39.1667V30.8334H35.8334V39.1667H36.6667Z" fill="#B3B3B3"/>
<path fill-rule="evenodd" clip-rule="evenodd" d="M41.6667 40V30H35V40H41.6667Z" stroke="#484848" stroke-width="0.954167" stroke-linecap="round"/>
<path fill-rule="evenodd" clip-rule="evenodd" d="M54.6667 39.1667V32.1667H48.8334V39.1667H54.6667Z" fill="#5F25FD"/>
<path opacity="0.4" fill-rule="evenodd" clip-rule="evenodd" d="M49.6667 39.1667V30.8334H48.8334V39.1667H49.6667Z" fill="#B3B3B3"/>
<path d="M54.6667 32H48.8334" stroke="#484848" stroke-width="0.954167" stroke-linecap="round"/>
<path fill-rule="evenodd" clip-rule="evenodd" d="M54.6667 40V30H48V40H54.6667Z" stroke="#484848" stroke-width="0.954167" stroke-linecap="round"/>
<path fill-rule="evenodd" clip-rule="evenodd" d="M28.6667 22.1667V19.8334H22.8334V22.1667H28.6667Z" fill="#5F25FD"/>
<path opacity="0.4" fill-rule="evenodd" clip-rule="evenodd" d="M23.6667 22.1667V13.8334H22.8334V22.1667H23.6667Z" fill="#B3B3B3"/>
<path d="M28.6667 20H22.8334" stroke="#484848" stroke-width="0.954167" stroke-linecap="round"/>
<path fill-rule="evenodd" clip-rule="evenodd" d="M28.6667 23V13H22V23H28.6667Z" stroke="#484848" stroke-width="0.954167" stroke-linecap="round"/>
<path fill-rule="evenodd" clip-rule="evenodd" d="M41.6667 22.1667V15.8334H35.8334V22.1667H41.6667Z" fill="#5F25FD"/>
<path opacity="0.4" fill-rule="evenodd" clip-rule="evenodd" d="M36.6667 22.1667V13.8334H35.8334V22.1667H36.6667Z" fill="#B3B3B3"/>
<path d="M41.6667 16H35.8334" stroke="#484848" stroke-width="0.954167" stroke-linecap="round"/>
<path fill-rule="evenodd" clip-rule="evenodd" d="M41.6667 23V13H35V23H41.6667Z" stroke="#484848" stroke-width="0.954167" stroke-linecap="round"/>
<path d="M64 1H13V5H64V1Z" fill="#5F25FD"/>
<path d="M64.001 4.90858V1.02338H13.1318V5.06002H23.4276" stroke="#484848" stroke-linecap="round"/>
<path opacity="0.400362" d="M61 5H20V7H61V5Z" fill="#B3B3B3"/>
<path fill-rule="evenodd" clip-rule="evenodd" d="M54.6667 22.1667V17.8334H48.8334V22.1667H54.6667Z" fill="#5F25FD"/>
<path opacity="0.4" fill-rule="evenodd" clip-rule="evenodd" d="M49.6667 22.1667V13.8334H48.8334V22.1667H49.6667Z" fill="#B3B3B3"/>
<path d="M54.6667 18H48.8334" stroke="#484848" stroke-width="0.954167" stroke-linecap="round"/>
<path fill-rule="evenodd" clip-rule="evenodd" d="M54.6667 23V13H48V23H54.6667Z" stroke="#484848" stroke-width="0.954167" stroke-linecap="round"/>
<path fill-rule="evenodd" clip-rule="evenodd" d="M28.6667 55.1667V46.8334H22.8334V55.1667H28.6667Z" fill="#5F25FD"/>
<path opacity="0.4" fill-rule="evenodd" clip-rule="evenodd" d="M23.6667 55.1667V46.8334H22.8334V55.1667H23.6667Z" fill="#B3B3B3"/>
<path fill-rule="evenodd" clip-rule="evenodd" d="M28.6667 56V46H22V56H28.6667Z" stroke="#484848" stroke-width="0.954167" stroke-linecap="round"/>
<path fill-rule="evenodd" clip-rule="evenodd" d="M54.6667 55.1667V46.8334H48.8334V55.1667H54.6667Z" fill="#5F25FD"/>
<path opacity="0.4" fill-rule="evenodd" clip-rule="evenodd" d="M49.6667 55.1667V46.8334H48.8334V55.1667H49.6667Z" fill="#B3B3B3"/>
<path d="M54.6667 51H48.8334" stroke="#484848" stroke-width="0.954167" stroke-linecap="round"/>
<path fill-rule="evenodd" clip-rule="evenodd" d="M54.6667 56V46H48V56H54.6667Z" stroke="#484848" stroke-width="0.954167" stroke-linecap="round"/>
<path fill-rule="evenodd" clip-rule="evenodd" d="M36.4015 54.1575C36.4015 53.0272 37.5139 51.6738 38.8864 51.6738C40.2589 51.6738 41.3717 53.0272 41.3717 54.1575H36.4015ZM34.8583 64.3302H42.3974V50.013H34.8583V64.3302Z" fill="#5F25FD"/>
<path d="M41.2797 53.9323C41.2797 52.6204 40.167 51.4483 38.7945 51.4483C37.422 51.4483 36.3092 52.6204 36.3092 53.9323" stroke="#484848" stroke-width="0.954167" stroke-linecap="round"/>
<path d="M34.293 64.3302V49.0711H43.3399V62.8232" stroke="#484848" stroke-width="0.954167" stroke-linecap="round"/>
<path d="M28.1567 66.372V64.1675H49.7635V66.372" stroke="#484848" stroke-width="0.954167" stroke-linecap="round"/>
<path opacity="0.4" fill-rule="evenodd" clip-rule="evenodd" d="M11 66.2172C11 63.8883 13.6864 62 16.9997 62C20.3141 62 23 63.8883 23 66.2172" fill="#B3B3B3"/>
<path d="M61 5V65.87" stroke="#484848" stroke-width="0.954167" stroke-linecap="round"/>
<g opacity="0.4">
<path opacity="0.4" d="M0.79364 66.481H69.6537" stroke="#AFAFAF" stroke-width="0.664736" stroke-linecap="round"/>
<path opacity="0.4" d="M72.6333 66.481H78.058" stroke="#AFAFAF" stroke-width="0.664736" stroke-linecap="round"/>
</g>
</g>
<defs>
<clipPath id="clip0_123_117">
<rect width="79" height="67" fill="white"/>
</clipPath>
</defs>
</svg>
