<svg width="66" height="46" viewBox="0 0 66 46" xmlns="http://www.w3.org/2000/svg" xmlns:xlink="http://www.w3.org/1999/xlink"><defs><path id="a" d="M65.926 45.139H0V.174h65.926V45.14z"/></defs><g fill="none" fill-rule="evenodd"><path d="M.91 4.066c0-1.658 1.378-3.002 3.075-3.002H61.94c1.698 0 3.074 1.34 3.074 3.002v37.18c0 1.66-1.377 3.003-3.074 3.003H3.985C2.287 44.25.91 42.91.91 41.247V4.067Z" fill="#FFF"/><mask id="b" fill="#fff"><use xlink:href="#a"/></mask><path d="M3.985 1.953c-1.193 0-2.164.948-2.164 2.113v37.18c0 1.166.97 2.114 2.164 2.114H61.94c1.193 0 2.164-.948 2.164-2.113V4.067c0-1.166-.971-2.114-2.164-2.114H3.985Zm0 43.186C1.787 45.139 0 43.393 0 41.247V4.067C0 1.92 1.787.173 3.985.173H61.94c2.197 0 3.985 1.746 3.985 3.892v37.18c0 2.147-1.788 3.893-3.985 3.893H3.985Z" fill="#484848" mask="url(#b)"/><path d="M17.29 15.691c2.563 0 4.64-2.005 4.64-4.479 0-2.473-2.077-4.479-4.64-4.479-2.564 0-4.641 2.006-4.641 4.48 0 2.473 2.077 4.478 4.64 4.478" fill="#FFF"/><path d="M17.29 7.623c-2.057 0-3.73 1.61-3.73 3.59 0 1.978 1.673 3.589 3.73 3.589 2.056 0 3.73-1.61 3.73-3.59 0-1.98-1.674-3.59-3.73-3.59m0 8.959c-3.061 0-5.552-2.409-5.552-5.369s2.49-5.368 5.551-5.368 5.552 2.408 5.552 5.368c0 2.96-2.49 5.369-5.552 5.369" fill="#484848"/><path d="M48 32.797c0-.993.827-1.797 1.848-1.797h8.471c1.02 0 1.848.805 1.848 1.797v5.13c0 .992-.826 1.796-1.848 1.796h-8.471c-1.02 0-1.848-.805-1.848-1.797v-5.13ZM10.613 16.285c2.905 0 5.26-2.273 5.26-5.076 0-2.804-2.355-5.077-5.26-5.077s-5.26 2.273-5.26 5.077c0 2.803 2.355 5.076 5.26 5.076" fill="#3782F7"/><path d="M14.842 24.628h-8.18a.9.9 0 0 1-.91-.89.9.9 0 0 1 .91-.89h8.18a.9.9 0 0 1 .91.89.9.9 0 0 1-.91.89m-3.25 9.411H5.674a.562.562 0 0 1-.569-.556c0-.307.255-.556.57-.556h5.917c.314 0 .569.249.569.556a.562.562 0 0 1-.57.556m12.62 0h-8.18a.562.562 0 0 1-.568-.556c0-.307.255-.556.569-.556h8.18c.314 0 .568.249.568.556a.562.562 0 0 1-.569.556m-3.358 3.721H5.674a.562.562 0 0 1-.569-.556c0-.308.255-.556.57-.556h15.178c.315 0 .57.248.57.556a.562.562 0 0 1-.57.555m8.387-13.131h-8.18a.9.9 0 0 1-.91-.89.9.9 0 0 1 .91-.89h8.18a.9.9 0 0 1 .91.89.9.9 0 0 1-.91.89m14.397 0h-8.18a.9.9 0 0 1-.91-.89.9.9 0 0 1 .91-.89h8.18a.9.9 0 0 1 .91.89.9.9 0 0 1-.91.89m14.58 0H49.67a.9.9 0 0 1-.91-.89.9.9 0 0 1 .91-.89h8.547a.9.9 0 0 1 .91.89.9.9 0 0 1-.91.89" fill="#484848"/></g></svg>