<svg width="86" height="37" viewBox="0 0 86 37" fill="none" xmlns="http://www.w3.org/2000/svg">
<g clip-path="url(#clip0_123_43)">
<g opacity="0.4">
<path opacity="0.4" d="M0.68988 35.8513H76.6209" stroke="#AFAFAF" stroke-width="0.552781" stroke-linecap="round"/>
<path opacity="0.4" d="M80.3042 36.0276H85.645" stroke="#AFAFAF" stroke-width="0.552781" stroke-linecap="round"/>
</g>
<path fill-rule="evenodd" clip-rule="evenodd" d="M81.306 26.4374C81.3315 31.8951 72.4921 33.5443 68.5374 34.4357C63.8861 35.4829 59.1032 35.802 54.3527 36.0297C48.4413 36.3132 42.46 36.0684 36.5423 36.0735C30.428 36.0799 24.313 36.0748 18.1987 36.0729H11.8013C11.8013 36.0729 7.96433 36.4105 8.52728 33.5926C9.15258 30.462 8.94712 28.533 10.6392 28.533C10.6392 28.533 21.4753 28.5571 36.7617 30.9617C52.0475 33.3663 75.5416 29.5121 81.306 26.4374Z" fill="#5F25FD"/>
<path fill-rule="evenodd" clip-rule="evenodd" d="M15.5283 16.0659C15.5283 16.0659 16.6002 13.3771 19.5104 11.4602L16.9386 8.47954L14.9908 6.18622H13.4654L11.8172 8.73767L10.4763 14.1V14.8553L12.6741 15.5515L15.5283 16.0659Z" fill="#5F25FD"/>
<path fill-rule="evenodd" clip-rule="evenodd" d="M39.8723 27.2694C39.8723 28.0228 39.2603 28.6351 38.5053 28.6351C37.7515 28.6351 37.1395 28.0228 37.1395 27.2694C37.1395 26.5153 37.7515 25.9037 38.5053 25.9037C39.2603 25.9037 39.8723 26.5153 39.8723 27.2694Z" fill="#5F25FD"/>
<path fill-rule="evenodd" clip-rule="evenodd" d="M46.4315 27.2694C46.4315 28.0228 45.8195 28.6351 45.0645 28.6351C44.3107 28.6351 43.6987 28.0228 43.6987 27.2694C43.6987 26.5153 44.3107 25.9037 45.0645 25.9037C45.8195 25.9037 46.4315 26.5153 46.4315 27.2694Z" fill="#5F25FD"/>
<path opacity="0.4" fill-rule="evenodd" clip-rule="evenodd" d="M9.64581 21.4205C9.64581 21.4205 18.3465 21.8248 21.3592 23.6324C24.3711 25.4374 24.4195 27.0676 24.7477 28.3093V29.1162C24.7477 29.1162 16.9573 27.5254 10.6394 28.5331" fill="#AFAFAF"/>
<path opacity="0.4" fill-rule="evenodd" clip-rule="evenodd" d="M59.9257 30.6817C59.9257 30.6817 62.1578 25.2724 65.3421 23.3249C68.5265 21.3768 73.5232 22.6771 76.2285 19.7416C76.2285 19.7416 82.2245 20.3151 81.2869 25.4625C80.3486 30.6086 80.8397 26.9731 80.8397 26.9731C80.8397 26.9731 69.1359 30.7288 59.9257 30.6817Z" fill="#AFAFAF"/>
<path opacity="0.4" fill-rule="evenodd" clip-rule="evenodd" d="M9.6333 31.0997C9.6333 31.0997 20.4694 31.1225 35.7558 33.5284C50.9035 35.9095 74.1076 32.1474 80.1354 29.0886C80.7263 28.2786 81.0749 27.3427 81.0698 26.2536C75.3054 29.327 51.8119 33.1813 36.5255 30.7786C21.2391 28.3734 10.403 28.3498 10.403 28.3498C9.0837 28.3498 8.91831 29.5222 8.61298 31.5218C8.8477 31.2459 9.16894 31.0997 9.6333 31.0997Z" fill="#AFAFAF"/>
<path opacity="0.4" fill-rule="evenodd" clip-rule="evenodd" d="M47.9973 31.7124L58.3125 20.6553H60.4231L50.4832 31.6489L47.9973 31.7124Z" fill="#AFAFAF"/>
<path opacity="0.4" fill-rule="evenodd" clip-rule="evenodd" d="M28.2858 25.8301L41.0423 12.9463L43.0836 13.4505L29.3633 27.534L28.2858 25.8301Z" fill="#AFAFAF"/>
<path fill-rule="evenodd" clip-rule="evenodd" d="M30.8622 9.22236C30.8622 9.22236 33.9384 -2.6092 39.5012 1.91705C45.0646 6.44265 43.6983 5.57034 43.6983 5.57034C43.6983 5.57034 39.659 4.98922 37.6813 5.77316C35.7043 6.55773 30.4703 10.4145 30.4703 10.4145L30.8622 9.22236Z" fill="#5F25FD"/>
<path d="M10.0813 28.5893C19.1669 27.6433 27.8434 29.5729 36.7617 30.9634C42.7373 31.8961 48.8669 31.8936 54.8979 31.6265C59.9403 31.4034 64.9713 30.8661 69.9362 29.9506C73.6612 29.2633 77.962 28.3325 81.306 26.441" stroke="#484848" stroke-width="0.636111" stroke-linecap="round"/>
<path d="M10.5984 14.6949C10.5984 14.6949 18.0066 15.2398 21.5205 17.0474C25.035 18.8537 25.5375 20.7611 25.9389 21.4643C26.2347 21.9818 27.8021 25.4202 29.3039 27.6423" stroke="#484848" stroke-width="0.954167" stroke-linecap="round"/>
<path d="M29.9718 11.3769C26.8339 13.9811 19.6109 13.983 16.8419 9.27682C13.8299 4.15738 12.5971 6.67323 10.6392 14.6525" stroke="#484848" stroke-width="0.954167" stroke-linecap="round"/>
<path d="M65.0628 17.859C63.0355 20.3189 60.0267 21.2179 56.9365 20.9382C53.4564 20.6222 51.1714 19.0397 48.44 17.0414C46.919 15.9281 44.9585 13.837 43.0839 13.4504C40.2316 12.8636 37.1745 13.8662 34.3075 13.3588C32.702 13.0734 31.181 12.4859 29.9304 11.4063" stroke="#484848" stroke-width="0.954167" stroke-linecap="round"/>
<path d="M30.8622 10.4157C30.8622 10.4157 38.0801 2.78995 44.5965 6.08274" stroke="#484848" stroke-width="0.954167" stroke-linecap="round"/>
<path fill-rule="evenodd" clip-rule="evenodd" d="M45.5366 10.8435C45.0671 11.2784 44.3025 11.2129 43.8248 10.6985C43.3503 10.1867 43.3439 9.41867 43.8127 8.98315L46.8304 6.19009C47.2999 5.7552 48.0658 5.82006 48.5416 6.33378C49.018 6.84814 49.0231 7.61555 48.5543 8.0498L45.5366 10.8435Z" stroke="#484848" stroke-width="0.954167" stroke-linecap="round"/>
<path fill-rule="evenodd" clip-rule="evenodd" d="M49.7957 13.3277C49.3262 13.7626 48.561 13.6977 48.0845 13.1834C47.6087 12.6709 47.6037 11.9022 48.0725 11.4674L50.4426 9.415C50.9114 8.98266 51.6773 9.04497 52.1538 9.55933C52.6296 10.0737 52.6353 10.8417 52.1671 11.276L49.7957 13.3277Z" stroke="#484848" stroke-width="0.954167" stroke-linecap="round"/>
<path fill-rule="evenodd" clip-rule="evenodd" d="M54.1192 15.6747C53.6975 16.1553 52.9297 16.17 52.403 15.7084C51.8763 15.2461 51.7924 14.4825 52.2135 14.0025L53.4392 12.8199C53.8616 12.3393 54.63 12.324 55.1561 12.785C55.6834 13.2485 55.768 14.0108 55.3457 14.4927L54.1192 15.6747Z" stroke="#484848" stroke-width="0.954167" stroke-linecap="round"/>
<path fill-rule="evenodd" clip-rule="evenodd" d="M58.6495 16.4962C58.6495 17.1472 58.1209 17.6749 57.4695 17.6749C56.8175 17.6749 56.2896 17.1472 56.2896 16.4962C56.2896 15.8451 56.8175 15.3174 57.4695 15.3174C58.1209 15.3174 58.6495 15.8451 58.6495 16.4962Z" stroke="#484848" stroke-width="0.954167" stroke-linecap="round"/>
<path d="M42.8181 13.7251L29.304 27.6427" stroke="#484848" stroke-width="0.954167" stroke-linecap="round"/>
<path d="M47.9973 31.7889L57.6916 21.0999" stroke="#484848" stroke-width="0.954167" stroke-linecap="round"/>
<path d="M81.3066 26.4596C81.3391 23.7931 82.1088 20.899 76.9378 19.9974C74.02 19.4907 69.0131 18.5802 64.9751 17.842" stroke="#484848" stroke-width="0.954167" stroke-linecap="round"/>
</g>
<defs>
<clipPath id="clip0_123_43">
<rect width="86" height="37" fill="white"/>
</clipPath>
</defs>
</svg>
