<svg xmlns="http://www.w3.org/2000/svg" width="32" height="32" viewBox="0 0 32 32">
    <g fill="none" fill-rule="evenodd">
        <g fill="#000">
            <g transform="translate(-1497 -174) translate(1497 174)">
                <circle cx="16" cy="16" r="16" fill-opacity=".04"/>
                <path fill-opacity=".8" fill-rule="nonzero" d="M15.97 7.71c-4.554 0-8.259 3.706-8.259 8.26s3.705 8.258 8.259 8.258 8.259-3.704 8.259-8.258c0-4.554-3.705-8.26-8.26-8.26zm0 1c4.002 0 7.259 3.258 7.259 7.26s-3.257 7.258-7.26 7.258c-4.001 0-7.258-3.256-7.258-7.258 0-4.002 3.257-7.26 7.259-7.26z"/>
                <path fill-opacity=".8" fill-rule="nonzero" d="M15.97 10.028c-3.277 0-5.942 2.665-5.942 5.942 0 3.276 2.665 5.94 5.942 5.94 3.276 0 5.941-2.664 5.941-5.94 0-3.277-2.665-5.942-5.941-5.942zm0 1c2.724 0 4.941 2.218 4.941 4.942s-2.217 4.94-4.941 4.94c-2.725 0-4.942-2.216-4.942-4.94s2.218-4.942 4.942-4.942z"/>
            </g>
        </g>
    </g>
</svg>
