<svg xmlns="http://www.w3.org/2000/svg" width="32" height="32" viewBox="0 0 32 32">
    <g fill="none" fill-rule="evenodd">
        <g fill="#000">
            <g transform="translate(-1497 -342) translate(1497 342)">
                <circle cx="16" cy="16" r="16" fill-opacity=".04"/>
                <path fill-opacity=".8" fill-rule="nonzero" d="M16.5 9c.245 0 .45.177.492.41L17 9.5v4.792l4.646-4.646c.196-.195.512-.195.708 0 .173.174.192.443.057.638l-.057.07L17.706 15H22.5c.245 0 .45.177.492.41l.008.09c0 .245-.177.45-.41.492L22.5 16H16V9.5c0-.276.224-.5.5-.5z" transform="rotate(180 19.5 12.5)"/>
                <path fill-opacity=".8" fill-rule="nonzero" d="M9.5 16c.245 0 .45.177.492.41l.008.09v4.792l4.646-4.646c.196-.195.512-.195.708 0 .173.174.192.443.057.638l-.057.07L10.706 22H15.5c.245 0 .45.177.492.41l.008.09c0 .245-.177.45-.41.492L15.5 23H9v-6.5c0-.276.224-.5.5-.5z"/>
            </g>
        </g>
    </g>
</svg>
