<svg xmlns="http://www.w3.org/2000/svg" width="32" height="32" viewBox="0 0 32 32">
    <g fill="none" fill-rule="evenodd">
        <g fill="#000">
            <g transform="translate(-1497 -286) translate(1497 286)">
                <circle cx="16" cy="16" r="16" fill-opacity=".04"/>
                <path fill-opacity=".8" fill-rule="nonzero" d="M19.843 10l-.089.006c-.131.02-.24.086-.308.185l-.043.081-.678 1.226-5.52-.057-.133-.509.342.072.083-.007c.236-.041.423-.257.423-.495s-.185-.45-.414-.493L13.42 10h-2.404l-.083.007c-.236.04-.423.257-.423.495s.185.449.414.493l.088.008.915.03.422.986-1.465 2.653-.181-.065c-1.808-.6-3.797.38-4.473 2.215-.703 1.907.268 4.014 2.173 4.716 1.844.679 3.873-.206 4.642-1.989l.075-.187c.072-.168.128-.36.188-.58l.062-.231 2.42.044.09-.006c.13-.02.24-.086.308-.185l2.939-5.36 1 2.103-.16.12c-1.5 1.182-1.782 3.364-.628 4.966 1.196 1.662 3.467 2.014 5.15.803 1.645-1.209 2.001-3.485.804-5.149-.72-.926-1.834-1.472-3.011-1.472-.376 0-.724.05-1.072.137l-.263.073-1.34-2.666.58-.982 2.057.027.083-.007c.236-.041.423-.257.423-.495s-.185-.45-.414-.493L22.247 10h-2.404zM9.707 15.418c.218 0 .432.022.642.102l.156.07-1.265 2.233-.038.082c-.073.217.027.47.235.588.053.027.114.048.166.06l.07.008 2.69.063-.043.164c-.343 1.164-1.406 1.98-2.613 1.98-1.472 0-2.676-1.203-2.676-2.675 0-1.471 1.204-2.675 2.676-2.675zm15.149 1.906c.434 1.402-.365 2.909-1.775 3.345-.266.066-.533.1-.8.1-1.472 0-2.676-1.204-2.676-2.676 0-.745.317-1.456.922-1.94l.157-.117 1.159 2.286.054.079c.154.186.417.242.618.127.213-.122.309-.375.235-.591l-.035-.08-1.17-2.377.163-.038c1.347-.263 2.736.553 3.148 1.882zm-11.988-4.13l.088.003 1.987 4.465-1.674-.115-.024-.194c-.126-.825-.581-1.585-1.27-2.162l-.177-.14 1.07-1.858zm-1.445 2.864l.116.1c.365.345.623.784.704 1.296l.021.196-1.798-.134.881-1.447.076-.011zm2.343-3.654l4.43.143-2.46 4.406-2.017-4.479.047-.07z"/>
            </g>
        </g>
    </g>
</svg>
