<svg xmlns="http://www.w3.org/2000/svg" width="48" height="48" viewBox="0 0 48 48" fill="none">
    <path fillRule="evenodd" clipRule="evenodd" d="M13.584 16H34.416C35.2908 16 36 16.7092 36 17.584V30.416C36 31.2908 35.2908 32 34.416 32H13.584C12.7092 32 12 31.2908 12 30.416V17.584V17.584C12 16.7092 12.7092 16 13.584 16V16Z" fill="#5697FA"/>
    <path d="M36 19H12V22H36V19Z" fill="#0864EE"/>
    <path d="M34 23H14V26H34V23Z" fill="white"/>
    <path d="M23.5 29H14.5C14.2239 29 14 29.2239 14 29.5C14 29.7761 14.2239 30 14.5 30H23.5C23.7761 30 24 29.7761 24 29.5C24 29.2239 23.7761 29 23.5 29Z" fill="#0864EE"/>
    <path d="M28.5 27H14.5C14.2239 27 14 27.2239 14 27.5C14 27.7761 14.2239 28 14.5 28H28.5C28.7761 28 29 27.7761 29 27.5C29 27.2239 28.7761 27 28.5 27Z" fill="#0864EE"/>
    <path fillRule="evenodd" clipRule="evenodd" d="M24 47.5C36.9787 47.5 47.5 36.9787 47.5 24C47.5 11.0213 36.9787 0.5 24 0.5C11.0213 0.5 0.5 11.0213 0.5 24C0.5 36.9787 11.0213 47.5 24 47.5Z" stroke="#EEEEEE"/>
  </svg>