<svg width="73" height="48" viewBox="0 0 73 48" fill="none" xmlns="http://www.w3.org/2000/svg">
<g clip-path="url(#clip0_123_75)">
<path fill-rule="evenodd" clip-rule="evenodd" d="M10.0162 41.4052V46.3644C10.0162 46.9792 10.5149 47.477 11.1294 47.477H17.4861C18.1012 47.477 18.5993 46.9792 18.5993 46.3644V41.9583" fill="#5F25FD"/>
<path fill-rule="evenodd" clip-rule="evenodd" d="M53.0319 42.0124V46.3644C53.0319 46.9792 53.5306 47.477 54.1451 47.477H60.5017C61.1162 47.477 61.6149 46.9792 61.6149 46.3644V41.9583" fill="#5F25FD"/>
<path d="M52.6561 2.35819C52.1084 1.29005 51.651 0.728638 50.6085 0.728638H21.5255C20.4822 0.728638 19.9975 1.35617 19.5554 2.44275L15.7089 10.621" stroke="#484848" stroke-width="0.954167" stroke-linecap="round"/>
<path fill-rule="evenodd" clip-rule="evenodd" d="M51.0803 4.99892C50.6688 3.98165 50.235 3.11188 49.193 3.11188H23.0825C22.04 3.11188 21.6042 3.94732 21.1946 4.99892L16.9473 14.7476C16.3277 15.9308 17.7926 16.6353 18.8359 16.6353H53.4397C54.4823 16.6353 55.8397 15.7916 55.3277 14.7476L51.0803 4.99892Z" fill="#5F25FD"/>
<path d="M21.1946 4.99892C21.6043 3.94732 22.04 3.11188 23.0826 3.11188H49.1931C50.235 3.11188 50.6689 3.98165 51.0804 4.99892L55.3277 14.7476C55.8398 15.7916 54.4823 16.6353 53.4398 16.6353H19.9752" stroke="#484848" stroke-width="0.954167" stroke-linecap="round"/>
<path d="M59.7775 17.4926L62.8989 24.2435" stroke="#484848" stroke-width="0.954167" stroke-linecap="round"/>
<path d="M52.4963 2.01862L58.7449 15.2979" stroke="#484848" stroke-width="0.608122" stroke-linecap="round"/>
<path d="M12.5069 17.6136L9.44019 23.9182" stroke="#484848" stroke-width="0.954167" stroke-linecap="round"/>
<path fill-rule="evenodd" clip-rule="evenodd" d="M30.475 38.5494H41.6114V34.7759H30.475V38.5494Z" stroke="#484848" stroke-width="0.954167" stroke-linecap="round"/>
<path opacity="0.4" fill-rule="evenodd" clip-rule="evenodd" d="M47.313 29.9303H24.4441L21.6338 24.905H50.6246L47.313 29.9303Z" fill="#B3B3B3"/>
<path opacity="0.4" fill-rule="evenodd" clip-rule="evenodd" d="M19.5767 36.5348C19.5767 37.238 19.0309 37.8089 18.3573 37.8089H13.5031C12.8301 37.8089 12.2843 37.238 12.2843 36.5348V36.2792C12.2843 35.5754 12.8301 35.0057 13.5031 35.0057H18.3573C19.0309 35.0057 19.5767 35.5754 19.5767 36.2792V36.5348Z" fill="#B3B3B3"/>
<path d="M38.0485 30.6953C37.5574 31.1448 36.9029 31.4195 36.1847 31.4195C34.658 31.4195 33.4208 30.1822 33.4208 28.6569C33.4208 27.1323 34.658 25.8937 36.1847 25.8937C37.7107 25.8937 38.9479 27.1323 38.9479 28.6569" stroke="#484848" stroke-width="0.954167" stroke-linecap="round"/>
<path fill-rule="evenodd" clip-rule="evenodd" d="M38.633 28.6569C38.633 30.0086 37.5364 31.1047 36.1846 31.1047C34.8323 31.1047 33.7356 30.0086 33.7356 28.6569C33.7356 27.3058 34.8323 26.209 36.1846 26.209C37.5364 26.209 38.633 27.3058 38.633 28.6569Z" fill="#5F25FD"/>
<g opacity="0.4">
<path opacity="0.4" d="M0.550537 47.1168H64.834" stroke="#AFAFAF" stroke-width="0.954167" stroke-linecap="round"/>
<path opacity="0.4" d="M67.3037 47.1168H72.5109" stroke="#AFAFAF" stroke-width="0.954167" stroke-linecap="round"/>
</g>
<path d="M58.8544 15.4715C59.0745 15.2859 59.3594 15.174 59.6699 15.174H63.5883C64.288 15.174 64.8548 15.7411 64.8548 16.4392V18.6747C64.8548 19.374 64.288 19.9393 63.5883 19.9393H60.9255" stroke="#484848" stroke-width="0.954167" stroke-linecap="round"/>
<path d="M11.2948 19.9966H8.6537C7.95462 19.9966 7.38721 19.4288 7.38721 18.7314V16.4965C7.38721 15.7971 7.95462 15.2307 8.6537 15.2307H12.5721C12.8851 15.2307 13.1714 15.3445 13.3927 15.532" stroke="#484848" stroke-width="0.954167" stroke-linecap="round"/>
<path d="M47.714 29.564L51.1719 22.857H60.4598" stroke="#484848" stroke-width="0.954167" stroke-linecap="round"/>
<path opacity="0.4" d="M11.8933 47.0559L12.7432 46.2052L11.8933 45.3558L12.7432 44.5057L11.8933 43.6556L12.7432 42.8075L11.8933 41.9581" stroke="#AFAFAF" stroke-width="0.538786" stroke-linecap="round"/>
<path opacity="0.4" d="M13.8009 47.0559L14.6507 46.2052L13.8009 45.3558L14.6507 44.5057L13.8009 43.6556L14.6507 42.8075L13.8009 41.9581" stroke="#AFAFAF" stroke-width="0.538786" stroke-linecap="round"/>
<path opacity="0.4" d="M15.709 47.0559L16.5588 46.2052L15.709 45.3558L16.5588 44.5057L15.709 43.6556L16.5588 42.8075L15.709 41.9581" stroke="#AFAFAF" stroke-width="0.538786" stroke-linecap="round"/>
<path opacity="0.4" d="M55.2573 47.0559L56.1072 46.2052L55.2573 45.3558L56.1072 44.5057L55.2573 43.6556L56.1072 42.8075L55.2573 41.9581" stroke="#AFAFAF" stroke-width="0.538786" stroke-linecap="round"/>
<path opacity="0.4" d="M57.165 47.0559L58.0149 46.2052L57.165 45.3558L58.0149 44.5057L57.165 43.6556L58.0149 42.8075L57.165 41.9581" stroke="#AFAFAF" stroke-width="0.538786" stroke-linecap="round"/>
<path opacity="0.4" d="M59.0729 47.0559L59.9227 46.2052L59.0729 45.3558L59.9227 44.5057L59.0729 43.6556L59.9227 42.8075L59.0729 41.9581" stroke="#AFAFAF" stroke-width="0.538786" stroke-linecap="round"/>
<path d="M22.253 41.9583H11.7979C10.0594 41.9583 8.64978 40.5494 8.64978 38.8124V26.003C8.64978 24.2647 10.0594 22.8571 11.7979 22.8571H21.0858L24.5437 29.5641" stroke="#484848" stroke-width="0.954167" stroke-linecap="round"/>
<path opacity="0.4" fill-rule="evenodd" clip-rule="evenodd" d="M20.4886 6.66285H51.5856L51.0805 5.11722C50.6689 4.10122 50.2351 3.23145 49.1932 3.23145H23.0827C22.0395 3.23145 21.6044 4.06561 21.1947 5.11722" fill="#B3B3B3"/>
<path opacity="0.4" fill-rule="evenodd" clip-rule="evenodd" d="M10.0164 43.5944H18.5994V41.9585H10.0164V43.5944Z" fill="#B3B3B3"/>
<path opacity="0.4" fill-rule="evenodd" clip-rule="evenodd" d="M53.0314 43.5944H61.6144V41.9585H53.0314V43.5944Z" fill="#B3B3B3"/>
<path d="M60.2884 22.8571C62.0269 22.8571 63.4366 24.2647 63.4366 26.003V38.8124C63.4366 40.5494 62.0269 41.9583 60.2884 41.9583H24.5435" stroke="#484848" stroke-width="0.954167" stroke-linecap="round"/>
<path fill-rule="evenodd" clip-rule="evenodd" d="M19.2895 29.3088C19.2895 31.2206 17.7386 32.7714 15.8252 32.7714C13.9118 32.7714 12.361 31.2206 12.361 29.3088C12.361 27.3957 13.9118 25.8463 15.8252 25.8463C17.7386 25.8463 19.2895 27.3957 19.2895 29.3088Z" stroke="#484848" stroke-width="0.954167" stroke-linecap="round"/>
<path opacity="0.4" d="M39.5133 15.189C39.5133 12.2224 41.9191 9.81842 44.8859 9.81842C47.8534 9.81842 50.2585 12.2224 50.2585 15.189" stroke="#AFAFAF" stroke-width="1.27222" stroke-linecap="round"/>
<path opacity="0.4" d="M23.4371 15.189C23.4371 12.2224 25.8429 9.81842 28.8097 9.81842C31.7772 9.81842 34.1823 12.2224 34.1823 15.189" stroke="#AFAFAF" stroke-width="1.27222" stroke-linecap="round"/>
<path opacity="0.4" fill-rule="evenodd" clip-rule="evenodd" d="M59.9976 36.5348C59.9976 37.238 59.4518 37.8089 58.7782 37.8089H53.924C53.251 37.8089 52.7052 37.238 52.7052 36.5348V36.2792C52.7052 35.5754 53.251 35.0057 53.924 35.0057H58.7782C59.4518 35.0057 59.9976 35.5754 59.9976 36.2792V36.5348Z" fill="#B3B3B3"/>
<path fill-rule="evenodd" clip-rule="evenodd" d="M59.7106 29.3088C59.7106 31.2206 58.1598 32.7714 56.2464 32.7714C54.3329 32.7714 52.7821 31.2206 52.7821 29.3088C52.7821 27.3957 54.3329 25.8463 56.2464 25.8463C58.1598 25.8463 59.7106 27.3957 59.7106 29.3088Z" stroke="#484848" stroke-width="0.954167" stroke-linecap="round"/>
</g>
<defs>
<clipPath id="clip0_123_75">
<rect width="73" height="48" fill="white"/>
</clipPath>
</defs>
</svg>
